<?xml version="1.0" encoding="utf-8"?>
<!-- Generator: Adobe Illustrator 21.0.2, SVG Export Plug-In . SVG Version: 6.00 Build 0)  -->
<svg version="1.1" id="Layer_1" xmlns="http://www.w3.org/2000/svg" xmlns:xlink="http://www.w3.org/1999/xlink" x="0px" y="0px"
	 viewBox="0 0 600 416" style="enable-background:new 0 0 600 416;" xml:space="preserve">
<style type="text/css">
	.st0{fill:#FFFFFF;}
</style>
<g>
	<path class="st0" d="M61.4,305.5l0.4-44.9c0-88.8-3.2-150.5-9.6-185c-6.8-36.3-15.1-54.5-24.9-54.5c-8.9,0-16.7,14.3-23.5,42.8
		l-3.5-4.6C10.3,19.8,21.4,0,33.3,0c28.6,0,42.9,82.6,42.9,247.7L98,161.6c13.3-52.1,19.9-84.8,19.9-97.8c0-4.4-2-6.5-6.1-6.5h-5.5
		l0.8-10.5h29.4l-0.9,10.5h-5.7l-61.4,244L61.4,305.5z"/>
	<path class="st0" d="M176.8,249.1l-1.2,16c-10,26.9-18.9,40.4-26.8,40.4c-6.6,0-9.8-8.7-9.8-26c0-5.8,0.5-15.5,1.6-28.9l4.7-59.8
		c1.3-17,1.9-28.3,1.9-33.9c0-9.6-1.5-14.4-4.4-14.4c-2,0-5.7,2-11,5.8l0.8-10.5l33.4-27.5l-5.2,55l-6.7,84.9
		c-1,13.3-1.6,21.8-1.6,25.4c0,7.5,1.3,11.2,4,11.2C160.9,286.9,167.7,274.3,176.8,249.1z M151.7,80.5l4.6-23.4l19.2-31.6l-5.9,31.6
		L151.7,80.5z"/>
	<path class="st0" d="M187.3,303.3l5-53l6.7-84.9c1-13.2,1.6-21.8,1.6-25.8c0-7.1-1.3-10.7-4-10.7c-4.5,0-11.2,12.6-20.3,37.8
		l1.2-15.8c9.9-27,18.9-40.6,26.8-40.6c6.6,0,9.8,8.6,9.8,25.8c0,5.8-0.5,15.6-1.6,29.2l-3.3,42.5h1c5.7-29.3,12.1-52.9,19.3-70.7
		c7.2-17.8,13.8-26.7,20-26.7c7.5,0,11.2,10.4,11.2,31.3c0,6.8-0.4,15-1.2,24.8l-6.6,83.9c-1,13.3-1.6,21.9-1.6,25.8
		c0,7.2,1.3,10.8,4,10.8c4.5,0,11.4-12.6,20.4-37.8l-1.3,16c-9.9,26.9-18.9,40.4-26.8,40.4c-6.6,0-9.8-8.6-9.8-25.9
		c0-5.7,0.5-15.5,1.6-29.2l6.6-84.2c0.5-6.5,0.8-12,0.8-16.5c0-9.3-1.4-13.9-4.1-13.9c-8.7,0-20.7,34.7-36.2,104l-5,61.4
		L187.3,303.3z"/>
	<path class="st0" d="M341.8,254.1l-1,13.2c-14.5,25.4-26.8,38.2-37,38.2c-6.5,0-11.7-5.7-15.7-17.1c-4-11.4-6-26.1-6-44.2
		c0-32.3,4.9-62.7,14.7-91.1c9.8-28.5,20.3-42.7,31.5-42.7c4,0,7.3,3.4,9.8,10.3c2.5,6.9,3.8,15.8,3.8,26.8c0,22-4.5,40.9-13.4,56.6
		c-8.9,15.8-19.6,23.7-31.9,23.7l-0.1,7.7c0,33.5,4.9,50.2,14.6,50.2C319.4,285.7,329.7,275.2,341.8,254.1z M296.6,217.3
		c10.2-2.1,18.2-8.7,23.9-19.9c5.7-11.2,8.6-25.6,8.6-43.4c0-17.5-2.5-26.3-7.6-26.3c-5.5,0-10.7,9.1-15.8,27.4
		C300.6,173.4,297.5,194.2,296.6,217.3z"/>
	<path class="st0" d="M348.7,295.4l9-23.2c5.9,10.9,11.9,16.3,18,16.3c3.8,0,6.9-2.5,9.5-7.5c2.6-5,3.9-11.1,3.9-18.5
		c0-8.1-2.6-19.3-7.7-33.4l-6.2-17.2c-6.1-16.7-9.1-30.7-9.1-41.9c0-15.6,2.9-29.4,8.8-41.5c5.9-12.1,12.6-18.1,20.1-18.1
		c4.1,0,8.8,2.2,13.9,6.5l-3,38h-4.4l0.2-2.9c0.1-1,0.1-2.2,0.1-3.6c0-15.5-3.9-23.2-11.8-23.2c-8.8,0-13.3,8.9-13.3,26.8
		c0,9.1,2.6,21.1,7.9,36.1l5.6,15.6c6.1,17.3,9.1,31.5,9.1,42.6c0,15.4-3.2,29.1-9.7,41.1c-6.5,12-13.8,18.1-22,18.1
		C362,305.5,355.6,302.1,348.7,295.4z"/>
	<path class="st0" d="M378,412.6l9.2-24.6c4.6,5.7,9.5,8.6,14.5,8.6c11.6,0,19.3-24.2,23.1-72.6l10.5-133.3
		c1.2-17,1.8-28.3,1.8-33.9c0-9.6-1.5-14.4-4.4-14.4c-2.1,0-5.8,2-11.1,6l0.9-10.5l33.3-27.5l-5.2,55.5l-3.3,41.9h1.2
		c5.2-28.9,11.4-52.3,18.6-70.4c7.2-18.1,14-27.1,20.3-27.1c9.7,0,14.5,15.1,14.5,45.4c0,35.4-5.5,68.9-16.6,100.6
		c-11.1,31.6-22.8,47.5-35.2,47.5c-1.3,0-3.9-0.6-7.8-1.9c-0.5-0.1-1.3-0.3-2.3-0.7c-3.6,37-9.8,65.4-18.7,85
		c-8.8,19.7-19.8,29.5-32.9,29.5C385.2,415.7,381.7,414.7,378,412.6z M441.9,277c5.7,6.3,11.4,9.5,17.1,9.5
		c8.2,0,14.8-13.2,19.8-39.5c5.9-31.2,8.8-59.2,8.8-84.1c0-18-2.1-27-6.3-27c-3.9,0-9.5,10.3-16.8,31c-7.3,20.7-13.8,44.4-19.4,71.1
		L441.9,277z"/>
	<path class="st0" d="M566.9,207.9h-1.2c-5.1,28.8-11.3,52.2-18.5,70.4c-7.2,18.2-14,27.2-20.3,27.2c-9.6,0-14.4-15.1-14.4-45.4
		c0-33.4,5.3-66,15.8-98c10.9-33.1,24.2-49.7,40-49.7c6.5,0,13.3,0.7,20.4,2.1l-4.9,50.9l-6.6,84.9c-1,13.3-1.6,21.9-1.6,25.8
		c0,7.2,1.3,10.8,4,10.8c4.5,0,11.3-12.6,20.3-37.8l-1.2,16c-10,26.9-18.9,40.4-26.9,40.4c-6.6,0-9.9-8.7-9.9-26
		c0-5.7,0.5-15.5,1.6-29.2L566.9,207.9z M572.4,139.1c-5.7-6.4-11.4-9.6-17-9.6c-8.3,0-14.9,13.2-19.9,39.5
		c-5.8,31.2-8.7,59.2-8.7,84.1c0,18,2.1,27,6.3,27c3.9,0,9.5-10.3,16.9-31c7.3-20.7,13.8-44.3,19.3-70.9L572.4,139.1z"/>
</g>
</svg>
